<?xml version="1.0" encoding="UTF-8" standalone="no"?>
<!-- Created with Inkscape (http://www.inkscape.org/) -->

<svg
   xmlns:dc="http://purl.org/dc/elements/1.1/"
   xmlns:cc="http://creativecommons.org/ns#"
   xmlns:rdf="http://www.w3.org/1999/02/22-rdf-syntax-ns#"
   xmlns:svg="http://www.w3.org/2000/svg"
   xmlns="http://www.w3.org/2000/svg"
   xmlns:sodipodi="http://sodipodi.sourceforge.net/DTD/sodipodi-0.dtd"
   xmlns:inkscape="http://www.inkscape.org/namespaces/inkscape"
   width="456"
   height="220.97"
   id="svg2"
   version="1.1"
   inkscape:version="0.48.4 r9939"
   sodipodi:docname="argowilis.svg">
  <defs
     id="defs4" />
  <sodipodi:namedview
     id="base"
     pagecolor="#ffffff"
     bordercolor="#666666"
     borderopacity="1.0"
     inkscape:pageopacity="0.0"
     inkscape:pageshadow="2"
     inkscape:zoom="2.8"
     inkscape:cx="303.55679"
     inkscape:cy="126.66172"
     inkscape:document-units="px"
     inkscape:current-layer="layer1"
     showgrid="false"
     fit-margin-top="0"
     fit-margin-left="0"
     fit-margin-right="0"
     fit-margin-bottom="0"
     inkscape:window-width="1366"
     inkscape:window-height="705"
     inkscape:window-x="-8"
     inkscape:window-y="-8"
     inkscape:window-maximized="1" />
  <metadata
     id="metadata7">
    <rdf:RDF>
      <cc:Work
         rdf:about="">
        <dc:format>image/svg+xml</dc:format>
        <dc:type
           rdf:resource="http://purl.org/dc/dcmitype/StillImage" />
        <dc:title />
      </cc:Work>
    </rdf:RDF>
  </metadata>
  <g
     inkscape:label="Layer 1"
     inkscape:groupmode="layer"
     id="layer1"
     transform="translate(-56.9375,-461.155)">
    <path
       style="fill:#e67817;fill-opacity:1;stroke:none;stroke-width:1px;stroke-linecap:butt;stroke-linejoin:miter;stroke-opacity:1"
       d="m 169.70563,618.11842 64.64976,-22.72843 53.53809,-14.64721 51.51778,-10.60661 64.64976,-11.61675 41.92133,-6.06092 -7.07107,18.18275 0.50508,1.01015 57.07362,-34.34518 -29.7995,-27.7792 -9.59645,20.70813 -57.07362,8.5863 -48.9924,10.6066 -52.52793,12.12183 -13.63706,4.04061 51.0127,-23.73859 71.72083,-24.74873 52.02286,-14.14214 52.52793,-11.11168 -34.34518,92.42896 -32.82996,-0.50508 -65.15484,4.54569 -57.5787,7.07107 -77.27667,10.10152 z"
       id="path3805"
       inkscape:connector-curvature="0" />
    <path
       style="fill:#184d93;fill-opacity:1;stroke:none;stroke-width:1px;stroke-linecap:butt;stroke-linejoin:miter;stroke-opacity:1"
       d="m 57.073617,669.6362 88.388353,-25.75889 88.89342,-16.66752 102.53049,-14.64721 64.64976,-4.04061 68.1853,-0.50508 -11.61676,33.33504 -44.95179,0 -78.28682,1.01015 -122.73353,7.57615 -102.53049,10.10152 z"
       id="path3807"
       inkscape:connector-curvature="0" />
  </g>
</svg>
