<?xml version="1.0" encoding="UTF-8" standalone="no"?>
<!-- Created with Inkscape (http://www.inkscape.org/) -->

<svg
   xmlns:dc="http://purl.org/dc/elements/1.1/"
   xmlns:cc="http://creativecommons.org/ns#"
   xmlns:rdf="http://www.w3.org/1999/02/22-rdf-syntax-ns#"
   xmlns:svg="http://www.w3.org/2000/svg"
   xmlns="http://www.w3.org/2000/svg"
   xmlns:sodipodi="http://sodipodi.sourceforge.net/DTD/sodipodi-0.dtd"
   xmlns:inkscape="http://www.inkscape.org/namespaces/inkscape"
   width="247.36607"
   height="244.47313"
   id="svg2"
   version="1.1"
   inkscape:version="0.48.5 r10040"
   sodipodi:docname="cgk_commuterline.svg">
  <defs
     id="defs4" />
  <sodipodi:namedview
     id="base"
     pagecolor="#ffffff"
     bordercolor="#666666"
     borderopacity="1.0"
     inkscape:pageopacity="0.0"
     inkscape:pageshadow="2"
     inkscape:zoom="0.98994949"
     inkscape:cx="439.03574"
     inkscape:cy="16.68984"
     inkscape:document-units="px"
     inkscape:current-layer="layer1"
     showgrid="false"
     fit-margin-top="0"
     fit-margin-left="0"
     fit-margin-right="0"
     fit-margin-bottom="0"
     inkscape:window-width="1600"
     inkscape:window-height="837"
     inkscape:window-x="-8"
     inkscape:window-y="-8"
     inkscape:window-maximized="1" />
  <metadata
     id="metadata7">
    <rdf:RDF>
      <cc:Work
         rdf:about="">
        <dc:format>image/svg+xml</dc:format>
        <dc:type
           rdf:resource="http://purl.org/dc/dcmitype/StillImage" />
        <dc:title></dc:title>
      </cc:Work>
    </rdf:RDF>
  </metadata>
  <g
     inkscape:label="Layer 1"
     inkscape:groupmode="layer"
     id="layer1"
     transform="translate(-172.98922,-272.93361)">
    <path
       style="fill:#000001;fill-opacity:1"
       d="m 226.76188,477.20482 c -4.66858,-1.6127 -9.35856,-5.64075 -12.0095,-10.31451 l -2.11774,-3.7337 -0.1969,-66.44396 c -0.14836,-50.06513 0.005,-67.17595 0.62016,-69.4134 1.35656,-4.93019 5.86325,-10.34202 10.87412,-13.05813 l 4.37658,-2.3723 68.14765,0 68.14765,0 3.85753,1.89436 c 4.43899,2.1799 7.88973,5.71492 10.59997,10.85886 l 1.89794,3.60222 0,66.7847 0,66.7847 -1.90838,3.8862 c -2.38948,4.86589 -7.51609,9.56021 -12.46115,11.41039 -3.68072,1.37714 -4.80335,1.39923 -69.98875,1.37734 -62.26557,-0.0209 -66.46391,-0.0968 -69.83918,-1.26277 z m 40.27288,-14.90005 c 3.87117,-6.36317 4.9439,-7.66661 6.30956,-7.66661 0.90498,0 1.64542,0.15745 1.64542,0.34989 0,0.19245 -1.50826,3.71909 -3.35169,7.83698 l -3.35169,7.48709 28.88284,0 28.88285,0 -1.26597,-2.89628 c -0.69628,-1.59295 -2.2187,-4.99485 -3.38316,-7.55977 -1.16447,-2.56492 -2.11721,-4.78823 -2.11721,-4.9407 0,-0.15247 0.73643,-0.27721 1.6365,-0.27721 1.35136,0 2.45779,1.33577 6.35027,7.66661 l 4.71376,7.66661 15.7407,0 15.7407,0 2.9533,-2.07469 c 1.62432,-1.14108 3.71996,-3.44107 4.65699,-5.11107 l 1.70369,-3.03639 0,-64.79371 0,-64.79371 -2.07235,-3.35394 c -1.32584,-2.14577 -3.16697,-3.96765 -5.11107,-5.05764 l -3.03873,-1.70369 -23.91907,-0.20242 -23.91907,-0.20242 -1.82744,4.21372 c -1.00508,2.31755 -1.99203,4.04912 -2.19322,3.84793 -0.20118,-0.20117 0.42149,-1.9194 1.38373,-3.81827 1.91289,-3.77491 2.02702,-4.17928 1.1796,-4.17928 -0.31345,0 -1.35794,1.82637 -2.3211,4.05859 -1.48425,3.43993 -1.60513,4.17981 -0.79305,4.85379 0.98432,0.81691 1.32522,2.67273 0.49096,2.67273 -0.25695,0 -1.14197,-0.63393 -1.9667,-1.40873 -1.09249,-1.02633 -2.20062,-1.35005 -4.08236,-1.19259 l -2.58283,0.21615 4.32583,5.00619 4.32584,5.00618 -2.49662,5.04559 c -1.37315,2.77508 -2.8058,5.0456 -3.18368,5.0456 -0.98809,0 -0.90722,-0.28421 1.35737,-4.77034 1.12444,-2.22749 2.04443,-4.38831 2.04443,-4.8018 0,-0.4135 -1.91665,-3.02055 -4.25923,-5.79345 -4.15343,-4.91641 -4.33757,-5.04211 -7.41302,-5.06018 -3.03064,-0.0178 -3.29714,0.14778 -6.82516,4.2407 -5.99817,6.95859 -5.7014,5.9956 -3.30862,10.73567 1.16653,2.31089 2.00902,4.71237 1.8722,5.33661 -0.20032,0.91397 -2.63102,-3.05562 -5.80221,-9.47562 -0.10554,-0.21365 1.81765,-2.74363 4.27376,-5.62218 l 4.46565,-5.23371 -2.64043,0 c -1.77495,0 -3.04472,0.44674 -3.87388,1.36295 -0.6784,0.74963 -1.49259,1.36296 -1.80931,1.36296 -1.13169,0 -0.54549,-1.45618 1.25967,-3.12915 1.82603,-1.69231 1.89481,-1.70008 13.28377,-1.50079 l 11.44822,0.20034 1.02725,-3.01768 c 0.56499,-1.65972 1.02725,-3.26971 1.02725,-3.57775 0,-0.30804 -6.43996,-0.56008 -14.31101,-0.56008 -7.87105,0 -14.31101,0.26922 -14.31101,0.59826 0,0.32904 0.47796,1.74217 1.06214,3.1403 0.58417,1.39813 0.93262,2.67157 0.77432,2.82987 -0.1583,0.1583 -0.95145,-1.25484 -1.76256,-3.14031 -0.81111,-1.88546 -1.75591,-3.42812 -2.09957,-3.42812 -0.34366,0 0.15633,1.7063 1.1111,3.79177 0.95476,2.08547 1.6058,3.92189 1.44676,4.08092 -0.15904,0.15905 -1.17519,-1.56462 -2.25812,-3.83036 l -1.96895,-4.11953 -24.21904,0.20897 c -26.47182,0.22841 -26.18575,0.18653 -30.10415,4.40736 -4.28612,4.61693 -4.03419,-0.0895 -3.83599,71.66 l 0.18044,65.32422 1.85858,2.68172 c 1.89615,2.73593 4.67654,4.75337 7.91559,5.74353 0.99601,0.30447 8.55489,0.50035 16.7975,0.43528 l 14.98658,-0.1183 4.66415,-7.66661 z m 6.59171,2.7259 c -1.7e-4,-0.2811 10.42642,-0.42654 23.17021,-0.32319 15.7372,0.12763 23.17051,-0.0399 23.17051,-0.52227 0,-0.48214 -7.23971,-0.64851 -22.54729,-0.51812 -12.40101,0.10563 -22.67988,-0.0225 -22.84192,-0.28465 -0.16205,-0.2622 0.20502,-1.72548 0.81571,-3.25172 l 1.11034,-2.77501 12.54202,0.34491 c 6.89812,0.18971 16.33737,0.34492 20.97612,0.34492 l 8.43408,0 1.09621,2.7397 c 2.04617,5.11387 3.73002,4.75654 -22.41473,4.75654 -12.93102,0 -23.51109,-0.23 -23.51126,-0.51111 z m -6.74341,-12.94805 c -2.25221,-1.86149 -7.56008,-14.29501 -7.56398,-17.71839 l -0.003,-2.89627 37.14047,0 37.14047,0 0,3.09901 c 0,3.74791 -5.84289,16.7772 -8.05436,17.96074 -0.94815,0.50744 -10.3599,0.74749 -29.30655,0.74749 -25.5768,0 -28.03045,-0.0997 -29.35275,-1.19258 z m 5.01093,-3.62484 c -0.58418,-0.94524 -0.99311,-0.76899 -0.99311,0.42805 0,0.58434 0.31167,0.86981 0.69259,0.63438 0.38093,-0.23542 0.51617,-0.71352 0.30052,-1.06243 z m 8.54756,0.38783 c 0,-0.56222 -0.30666,-1.02222 -0.68147,-1.02222 -0.37482,0 -0.68148,0.46 -0.68148,1.02222 0,0.56222 0.30666,1.02221 0.68148,1.02221 0.37481,0 0.68147,-0.45999 0.68147,-1.02221 z m 7.90797,-0.83765 c -0.69273,-0.69273 -1.26431,0.3502 -0.69594,1.26985 0.42936,0.69471 0.58988,0.69525 0.82071,0.003 0.15783,-0.47348 0.10168,-1.04615 -0.12477,-1.2726 z m 8.7591,0.44982 c -0.58418,-0.94524 -0.99311,-0.76899 -0.99311,0.42805 0,0.58434 0.31167,0.86981 0.69259,0.63438 0.38093,-0.23542 0.51617,-0.71352 0.30052,-1.06243 z m 8.17772,0 c -0.58418,-0.94524 -0.99311,-0.76899 -0.99311,0.42805 0,0.58434 0.31167,0.86981 0.69259,0.63438 0.38093,-0.23542 0.51617,-0.71352 0.30052,-1.06243 z m 8.54756,0.34761 c 0,-0.58434 -0.31166,-0.86981 -0.69259,-0.63439 -0.38092,0.23542 -0.51616,0.71352 -0.30052,1.06244 0.58419,0.94523 0.99311,0.76898 0.99311,-0.42805 z m 8.48248,-0.35873 c -0.21941,-0.35502 -0.68941,-0.46598 -1.04444,-0.24655 -0.35503,0.21941 -0.46598,0.68941 -0.24656,1.04444 0.21942,0.35503 0.68942,0.46598 1.04445,0.24656 0.35502,-0.21942 0.46598,-0.68942 0.24655,-1.04445 z m -14.75843,-8.52418 c 0.14534,-3.54701 -0.0609,-5.04918 -0.77441,-5.64136 -0.67483,-0.56006 -3.96863,-0.74908 -10.76097,-0.61755 l -9.78847,0.18955 -0.19821,5.63963 -0.19821,5.63963 10.7611,-0.18782 10.7611,-0.18781 0.19807,-4.83427 z m -48.08028,-42.40854 0.17885,-31.90959 1.81324,-2.73921 c 3.49252,-5.27602 3.68963,-5.30939 32.79081,-5.55211 27.72325,-0.23121 31.76105,0.11172 35.1791,2.98782 4.06881,3.42368 4.13217,4.00847 4.12806,38.09773 l -0.003,31.02495 -12.80143,0 c -9.69347,0 -13.10798,-0.22415 -14.06404,-0.92324 -1.20313,-0.87975 -1.24143,-2.06547 -0.81313,-25.17397 0.28199,-15.2149 0.20236,-24.90067 -0.21373,-25.99508 -0.66028,-1.73576 -0.70328,-1.74436 -8.72184,-1.74436 -5.35892,0 -8.33223,0.27394 -8.87606,0.81777 -0.60729,0.60729 -0.81777,7.46847 -0.81777,26.65707 0,25.50972 -0.0174,25.83475 -1.3639,25.48263 -0.75014,-0.19617 -1.19203,-0.0786 -0.98199,0.26125 0.22331,0.36133 -5.01503,0.61793 -12.61485,0.61793 l -12.99675,0 0.17884,-31.90959 z m 49.92181,30.55444 c 0.23875,-0.38631 -0.0348,-0.50055 -0.64126,-0.26783 -1.1806,0.45304 -1.39661,0.9415 -0.41635,0.9415 0.35269,0 0.82862,-0.30316 1.05761,-0.67367 z m -26.9135,-1.00605 c 0,-0.17422 -0.68999,-0.65113 -1.53332,-1.0598 -1.47242,-0.71354 -1.48077,-0.70096 -0.21049,0.31675 1.39039,1.11394 1.74381,1.26453 1.74381,0.74305 z m 30.66645,-1.43488 c 0,-0.18741 -0.61333,-0.0125 -1.36296,0.38869 -0.74962,0.40119 -1.36295,0.88277 -1.36295,1.07017 0,0.18741 0.61333,0.0125 1.36295,-0.38869 0.74963,-0.40119 1.36296,-0.88276 1.36296,-1.07017 z m -36.11826,-1.91303 c 0,-0.14151 -0.53666,-0.67818 -1.19258,-1.19259 -1.08087,-0.84767 -1.10497,-0.82356 -0.2573,0.2573 0.89026,1.13517 1.44988,1.49617 1.44988,0.93529 z m 40.20712,-0.76492 c 0.4666,-0.56222 0.69503,-1.02222 0.50762,-1.02222 -0.18741,0 -0.7225,0.46 -1.1891,1.02222 -0.4666,0.56222 -0.69503,1.02221 -0.50763,1.02221 0.18741,0 0.72251,-0.45999 1.18911,-1.02221 z m -45.14623,-3.57775 -2.48981,-2.55554 1.67003,-1.48175 c 4.55601,-4.04239 -1.30046,-11.70165 -6.20514,-8.11527 -0.78214,0.57191 -1.6129,0.72353 -2.03681,0.37172 -1.1403,-0.94637 -0.0625,6.69836 1.10961,7.8705 0.5524,0.5524 1.84227,1.0737 2.86637,1.15846 1.11905,0.0926 2.86594,1.18222 4.37805,2.73076 1.38382,1.41716 2.66937,2.57665 2.85678,2.57665 0.1874,0 -0.77968,-1.14999 -2.14908,-2.55553 z m -7.21209,-5.28955 c -2.17996,-2.77137 -0.47957,-6.46592 2.9759,-6.46592 3.44172,0 5.03603,5.13667 2.2089,7.11686 -2.14958,1.50562 -3.63516,1.31911 -5.1848,-0.65094 z m 4.50332,-0.0305 c 3.3452,-2.34307 0.43275,-7.04645 -3.16954,-5.11857 -1.81997,0.97402 -1.98322,4.43768 -0.25657,5.44336 1.57509,0.91741 1.66475,0.90892 3.42611,-0.32479 z m 56.88979,2.44897 c 1.40842,-0.44869 2.82461,-1.32789 3.14708,-1.9538 0.74749,-1.45086 1.48195,-8.08871 0.76699,-6.93187 -0.41944,0.67867 -0.8747,0.6253 -2.12271,-0.24884 -5.27349,-3.69369 -11.24037,3.70046 -6.43022,7.96833 l 1.67003,1.48176 -2.52188,2.7259 -2.52187,2.72591 2.72591,-2.4758 c 1.49924,-1.36169 3.87825,-2.8429 5.28667,-3.29159 z m -3.8181,-1.95288 c -3.25927,-3.60145 1.35952,-9.05702 5.14713,-6.07963 1.85827,1.46076 2.04849,3.54941 0.50228,5.5151 -1.65897,2.10903 -4.03663,2.34662 -5.64941,0.56453 z m 4.36878,-0.14069 c 1.96786,-1.05316 1.77708,-4.56647 -0.29934,-5.51255 -3.6663,-1.67048 -6.29646,2.84907 -3.00121,5.15715 1.79709,1.25874 1.64355,1.2422 3.30055,0.3554 z m -65.38336,-9.9767 c -0.80335,-1.38149 -0.99735,-0.93931 -0.33974,0.77439 0.23371,0.60904 0.56848,0.96379 0.74394,0.78833 0.17546,-0.17546 -0.006,-0.87868 -0.4042,-1.56272 z m 70.7695,-0.56221 c 0,-0.37482 -0.29727,-0.22148 -0.66061,0.34073 -0.36333,0.56222 -0.6606,1.32888 -0.6606,1.7037 0,0.37481 0.29727,0.22148 0.6606,-0.34074 0.36334,-0.56222 0.66061,-1.32888 0.66061,-1.70369 z m -48.51594,-6.36568 c 0.65839,-0.41782 0.82428,-3.11105 0.68148,-11.06356 l -0.18877,-10.5113 -10.4493,0 -10.44931,0 0.0284,10.73325 c 0.0156,5.90329 0.0412,10.88659 0.0568,11.074 0.048,0.57667 19.39444,0.35543 20.32072,-0.23239 z m -19.83639,-0.60107 c -0.1808,-0.29122 4.08928,-0.43707 9.48907,-0.32411 l 9.81782,0.20538 0,-9.89772 0,-9.89771 -9.3703,-0.21714 -9.37031,-0.21713 9.54068,0.0281 9.54067,0.0281 0,10.22215 0,10.22214 -9.65946,0.18877 c -5.31269,0.10382 -9.80738,-0.0496 -9.98817,-0.34074 z m 66.40396,-0.35913 c 0.78468,-1.49534 0.77074,-1.50329 -0.56273,-0.32088 -1.19562,1.06016 -2.55598,1.18854 -10.83241,1.02221 l -9.46508,-0.19022 0,-10.22215 0,-10.22214 9.54067,-0.0281 9.54067,-0.0281 -9.3703,0.21714 -9.37031,0.21714 0,9.88141 0,9.88141 9.71104,-0.18908 9.71104,-0.18908 0.18979,-9.39852 c 0.11836,-5.86142 0.43894,-9.24453 0.85184,-8.98935 1.02173,0.63146 0.78273,-0.76718 -0.28209,-1.65091 -0.64219,-0.53296 -4.18413,-0.72312 -11.074,-0.59455 l -10.12983,0.18907 -0.18904,10.12983 c -0.12857,6.88987 0.0616,10.43181 0.59456,11.074 0.60107,0.72425 3.06006,0.94416 10.55757,0.94416 9.44327,0 9.80121,-0.0519 10.57861,-1.53333 z m 0.43006,-13.60282 c -0.13345,-2.35727 -0.24374,-0.60596 -0.24509,3.89178 -0.001,4.49775 0.10784,6.42642 0.24265,4.28594 0.1348,-2.14049 0.1359,-5.82046 0.003,-8.17772 z m -25.85625,-16.38214 0.20439,-3.91849 -8.21173,0 -8.21173,0 0,4.11049 0,4.11048 8.00735,-0.19199 8.00735,-0.192 0.20437,-3.91849 z m -14.27261,60.65141 c 1.29975,-2.05795 1.69616,-2.22932 5.59725,-2.41973 3.28041,-0.16011 4.50098,0.0634 5.58203,1.02222 1.35419,1.20106 1.36649,1.19455 0.57898,-0.30618 -0.71204,-1.35691 -1.33112,-1.53403 -5.38061,-1.53947 -4.33347,-0.006 -4.67462,0.11156 -6.43707,2.2148 l -1.86109,2.22094 0.1574,-25.21463 0.15739,-25.21463 7.21617,-0.19231 7.21617,-0.19232 0.44897,16.88849 c 0.62901,23.66147 0.57054,32.90319 -0.20818,32.90319 -0.36304,0 -0.48357,0.45999 -0.26783,1.02221 0.33363,0.86941 -0.69831,1.02222 -6.90307,1.02222 l -7.29533,0 1.39882,-2.2148 z m 0.56773,-21.46651 c -0.17141,-0.65592 -0.31166,-0.11926 -0.31166,1.19258 0,1.31184 0.14025,1.84851 0.31166,1.19258 0.17141,-0.65592 0.17141,-1.72924 0,-2.38516 z m 11.45608,-17.20729 0,-9.19993 -5.96292,-0.1969 -5.96292,-0.1969 0,9.59373 0,9.59374 5.96292,-0.1969 5.96292,-0.1969 0,-9.19994 z m -24.87134,-32.5405 c 0.001,-0.28111 0.61022,-1.50777 1.35293,-2.72591 l 1.35039,-2.21479 16.37547,0 16.37547,0 1.35039,2.21479 c 0.74271,1.21814 1.35154,2.4448 1.35293,2.72591 0.001,0.28111 -8.58405,0.51111 -19.07879,0.51111 -10.49474,0 -19.0802,-0.23 -19.07879,-0.51111 z m 11.58255,-6.22021 c 0,-1.62339 2.19799,-2.17343 7.93229,-1.98503 5.10088,0.16761 6.05753,0.38041 6.25064,1.39047 0.20552,1.07498 -0.48256,1.19259 -6.97746,1.19259 -3.96301,0 -7.20547,-0.26912 -7.20547,-0.59803 z"
       id="path3022"
       inkscape:connector-curvature="0" />
  </g>
</svg>
