<?xml version="1.0" encoding="UTF-8" standalone="no"?>
<!-- Created with Inkscape (http://www.inkscape.org/) -->

<svg
   xmlns:dc="http://purl.org/dc/elements/1.1/"
   xmlns:cc="http://creativecommons.org/ns#"
   xmlns:rdf="http://www.w3.org/1999/02/22-rdf-syntax-ns#"
   xmlns:svg="http://www.w3.org/2000/svg"
   xmlns="http://www.w3.org/2000/svg"
   xmlns:sodipodi="http://sodipodi.sourceforge.net/DTD/sodipodi-0.dtd"
   xmlns:inkscape="http://www.inkscape.org/namespaces/inkscape"
   width="573.5"
   height="223.03906"
   id="svg2"
   version="1.1"
   inkscape:version="0.48.4 r9939"
   sodipodi:docname="daytrans.svg">
  <defs
     id="defs4" />
  <sodipodi:namedview
     id="base"
     pagecolor="#ffffff"
     bordercolor="#666666"
     borderopacity="1.0"
     inkscape:pageopacity="0.0"
     inkscape:pageshadow="2"
     inkscape:zoom="0.7"
     inkscape:cx="185.27403"
     inkscape:cy="62.411517"
     inkscape:document-units="px"
     inkscape:current-layer="layer1"
     showgrid="false"
     fit-margin-top="0"
     fit-margin-left="0"
     fit-margin-right="0"
     fit-margin-bottom="0"
     inkscape:window-width="1366"
     inkscape:window-height="705"
     inkscape:window-x="-8"
     inkscape:window-y="-8"
     inkscape:window-maximized="1" />
  <metadata
     id="metadata7">
    <rdf:RDF>
      <cc:Work
         rdf:about="">
        <dc:format>image/svg+xml</dc:format>
        <dc:type
           rdf:resource="http://purl.org/dc/dcmitype/StillImage" />
        <dc:title />
      </cc:Work>
    </rdf:RDF>
  </metadata>
  <g
     inkscape:label="Layer 1"
     inkscape:groupmode="layer"
     id="layer1"
     transform="translate(-125.20194,-524.56802)">
    <rect
       style="fill:#ff0000;fill-opacity:1;stroke:#000000;stroke-width:0.70866143999999998;stroke-linecap:butt;stroke-linejoin:miter;stroke-miterlimit:4;stroke-opacity:1;stroke-dasharray:none"
       id="rect3053"
       width="574.77679"
       height="224.25386"
       x="0"
       y="-0.20465003"
       transform="translate(125.20194,524.56802)" />
    <path
       style="fill:#ffffff;fill-opacity:1"
       d="m 333.31961,729.89646 c -3.96665,-2.21985 -1.69134,-16.42149 8.35433,-52.14471 3.25682,-11.58152 5.92149,-21.70895 5.92149,-22.50542 0,-0.89658 -1.56648,-0.0329 -4.11299,2.26773 -7.88725,7.12565 -16.32986,9.31618 -21.18542,5.49679 -5.09861,-4.01057 -5.70108,-17.4195 -1.43687,-31.97991 1.54107,-5.26205 5.28733,-7.84529 8.71617,-6.01023 2.56886,1.37482 2.5397,3.5003 -0.19473,14.1918 -2.64996,10.36124 -1.99706,14.11674 2.54534,14.64094 5.09206,0.58763 12.86845,-6.50604 21.20047,-19.33919 7.76736,-11.96343 10.20919,-13.93253 13.53969,-10.91847 2.57989,2.33477 2.44415,4.00959 -0.97902,12.08044 -6.3174,14.89456 -17.94664,56.07138 -23.11758,81.85471 -2.00633,10.00394 -5.38965,14.52637 -9.25088,12.36552 z M 187.94318,700.78094 c -3.57377,-6.8177 -3.5335,-17.65405 0.23147,-62.28605 1.59398,-18.89597 1.59057,-19.06185 -0.46329,-22.54289 -2.60795,-4.42014 -1.542,-9.31983 2.88588,-13.26509 1.649,-1.46927 2.99819,-3.27318 2.99819,-4.0087 0,-1.7554 3.23973,-4.64727 5.2063,-4.64727 0.85184,0 2.06063,0.61671 2.68619,1.37046 0.95055,1.14534 2.24373,0.9492 7.87245,-1.19405 5.76381,-2.19469 8.39345,-2.57258 18.23506,-2.62046 8.65728,-0.0421 12.79041,0.39406 16.72024,1.76453 6.38252,2.22581 14.90538,9.64672 17.40907,15.1582 3.28578,7.2331 1.89416,21.44831 -3.31413,33.85355 -5.55203,13.22394 -20.55924,31.04803 -35.83373,42.55979 -7.57881,5.71184 -24.54119,15.10798 -27.27367,15.10798 -0.81098,0 -1.70987,0.9 -1.99753,2 -0.78998,3.02089 -3.44861,2.40116 -5.3625,-1.25 z m 17.04394,-20.44421 c 12.48431,-7.80477 19.12058,-12.97935 27.88202,-21.74079 13.93173,-13.93173 19.09048,-24.43397 18.5374,-37.73864 -0.3481,-8.37367 -1.95904,-11.20999 -8.31111,-14.63306 -6.29163,-3.39049 -24.29825,-1.39784 -34.52789,3.82093 l -3.58808,1.8305 -2.66494,16.32764 c -2.24449,13.75166 -4.13348,27.85154 -7.17789,53.57763 -0.27662,2.3375 -0.22279,4.25 0.11962,4.25 0.34241,0 4.7213,-2.56239 9.73087,-5.69421 z M 365.04435,696.337 c -1.59192,-1.59192 -1.58117,-1.73492 0.17857,-2.37437 1.02988,-0.37423 2.6327,-0.28574 3.56182,0.19665 1.02693,0.53316 1.9323,0.4839 2.30902,-0.12564 0.34084,-0.55148 0.17529,-1.0027 -0.36788,-1.0027 -1.24931,0 -4.13045,-2.83997 -4.13045,-4.07143 0,-3.76564 8.45987,-6.48924 10.92611,-3.5176 1.56973,1.8914 -0.0646,2.81501 -3.63012,2.05148 l -2.79599,-0.59875 2.75,2.15156 c 3.43813,2.68994 3.46458,4.27749 0.11514,6.91216 -3.19479,2.51302 -6.63572,2.65914 -8.91622,0.37864 z m 10.55108,1.17198 c 0,-0.28707 1.32178,-3.43707 2.93728,-7 1.91101,-4.21463 3.52117,-6.47804 4.60841,-6.47804 1.28319,0 1.52547,0.58035 1.04367,2.5 -0.43867,1.74777 -0.21869,2.5 0.73107,2.5 0.7472,0 1.87112,-1.125 2.49762,-2.5 0.67179,-1.47442 1.97384,-2.5 3.17393,-2.5 2.24073,0 2.48277,-0.99697 -2.60986,10.75 -0.94642,2.18309 -2.09624,3.25 -3.50253,3.25 -1.28075,0 -1.89515,-0.48531 -1.58251,-1.25 0.28108,-0.6875 0.82737,-2.0375 1.21397,-3 0.48073,-1.19681 0.23329,-1.75 -0.78274,-1.75 -0.81712,0 -2.04486,1.35 -2.72831,3 -0.7571,1.82779 -1.97671,3 -3.12132,3 -1.03327,0 -1.87868,-0.23488 -1.87868,-0.52196 z m 15.08811,-0.87188 c -1.78481,-2.15056 3.08402,-12.60616 5.87028,-12.60616 2.01151,0 2.02386,0.10322 0.44862,3.75 -1.99569,4.6201 -2.19614,6.04367 -0.90701,6.44144 0.55,0.16971 2.09019,-2.05394 3.42265,-4.94144 2.34541,-5.08262 4.37367,-6.58086 5.41507,-4 0.40351,1 0.52017,1 0.58333,0 0.0575,-0.91112 2.78144,-1.25 10.04757,-1.25 8.45014,0 9.88093,0.22849 9.39301,1.5 -0.31659,0.825 -1.22723,1.5 -2.02365,1.5 -0.79642,0 -2.5426,2.475 -3.8804,5.5 -1.79398,4.05652 -2.96409,5.5 -4.45839,5.5 -1.9629,0 -1.97549,-0.11684 -0.4039,-3.75 2.86216,-6.61666 2.88222,-7.25 0.22966,-7.25 -1.92554,0 -2.94905,1.10254 -5.10577,5.5 -1.49564,3.04956 -3.37059,5.5 -4.20831,5.5 -1.89,0 -1.89172,-0.84426 -0.0109,-5.34576 1.86201,-4.45642 1.88501,-5.65424 0.10858,-5.65424 -0.76528,0 -2.09603,1.761 -2.95723,3.91334 -2.45713,6.14097 -8.65779,9.19368 -11.56324,5.69282 z m 29.91189,1.08695 c 0,-0.22907 1.35448,-3.40372 3.00996,-7.05479 2.24545,-4.95225 3.51541,-6.63832 5,-6.63832 2.45816,0 2.45784,0.16271 -0.01,5 -2.4774,4.8561 -2.47529,5 0.0733,5 1.43453,0 1.97094,0.53918 1.74101,1.75 -0.2504,1.31861 -1.50102,1.82513 -5.07332,2.05479 -2.6075,0.16764 -4.74095,0.11738 -4.74095,-0.11168 z m 11,-0.76327 c 0,-0.64886 1.18645,-3.82352 2.63656,-7.05479 2.63263,-5.86629 2.64308,-5.87505 7,-5.87505 3.21195,0 4.36344,0.39584 4.36344,1.5 0,0.99331 -0.99344,1.5 -2.94098,1.5 -1.61754,0 -3.2191,0.45 -3.55902,1 -0.33992,0.55 0.30852,1 1.44098,1 1.16357,0 2.05902,0.65234 2.05902,1.5 0,0.92366 -0.93789,1.5 -2.44098,1.5 -1.34254,0 -2.7191,0.45 -3.05902,1 -0.35224,0.56993 0.51406,1 2.01431,1 1.96692,0 2.54833,0.44238 2.30002,1.75 -0.2504,1.31861 -1.50102,1.82513 -5.07332,2.05479 -3.1478,0.20237 -4.74101,-0.0917 -4.74101,-0.87495 z m 32.5593,-1.17984 c 0.38174,-1.2375 1.3545,-3.54722 2.16169,-5.1327 1.13665,-2.23262 1.19195,-3.05308 0.2452,-3.6382 -2.28298,-1.41095 0.1346,-2.9791 4.59283,-2.9791 4.51562,0 6.13012,1.74552 2.49399,2.69639 -1.1981,0.31331 -2.80743,2.58513 -4.18401,5.90638 -1.58633,3.82731 -2.78486,5.39723 -4.1204,5.39723 -1.49211,0 -1.73919,-0.46743 -1.1893,-2.25 z m 7.43783,1.5 c -0.002,-0.4125 1.19092,-3.5625 2.65001,-7 2.48337,-5.8506 2.86175,-6.25 5.92109,-6.25 6.53631,0 8.47394,2.84189 4.43177,6.5 -1.10722,1.00202 -2,3.07997 -2,4.65499 0,2.17834 -0.46866,2.84501 -2,2.84501 -1.46667,0 -2,-0.66667 -2,-2.5 0,-1.375 -0.37777,-2.5 -0.83948,-2.5 -0.46172,0 -1.35207,1.125 -1.97857,2.5 -1.03011,2.26086 -4.17782,3.57716 -4.18482,1.75 z m 10.00287,-9.25 c 0,-0.55 -0.45,-1 -1,-1 -0.55,0 -1,0.45 -1,1 0,0.55 0.45,1 1,1 0.55,0 1,-0.45 1,-1 z m 2,9.42919 c 0,-0.31394 2.0645,-3.46394 4.58778,-7 2.9005,-4.06469 5.29104,-6.42919 6.5,-6.42919 2.11931,0 2.33872,1.60918 1.2763,9.36043 -0.49792,3.6327 -1.04046,4.63957 -2.5,4.63957 -1.02525,0 -1.86408,-0.675 -1.86408,-1.5 0,-0.825 -0.85186,-1.5 -1.89301,-1.5 -1.04116,0 -2.15203,0.675 -2.46862,1.5 -0.53671,1.39864 -3.63837,2.19077 -3.63837,0.92919 z m 9,-6.48821 c 0,-0.58246 -0.45,-0.7809 -1,-0.44098 -0.55,0.33992 -1,0.81648 -1,1.05902 0,0.24254 0.45,0.44098 1,0.44098 0.55,0 1,-0.47656 1,-1.05902 z m 6.35815,3.30902 c 0.34091,-2.0625 0.62479,-5.2125 0.63084,-7 0.009,-2.54584 0.43126,-3.25 1.95064,-3.25 1.51952,0 2.00686,0.81224 2.25,3.75 l 0.31037,3.75 2.33156,-3.75 c 1.28236,-2.0625 2.96986,-3.75 3.75,-3.75 2.10833,0 1.8379,0.6582 -3.13209,7.62301 -3.09275,4.33411 -5.21695,6.37699 -6.63084,6.37699 -1.84745,0 -2.01093,-0.41977 -1.46048,-3.75 z m 9.03824,2.0601 c 0.36108,-0.99555 1.6571,-4.16492 2.88006,-7.04303 l 2.22355,-5.23294 4.83333,-0.0171 c 5.53418,-0.0195 6.22015,2.26492 0.83966,2.79629 -3.42698,0.33844 -4.44495,2.18664 -1.20437,2.18664 1.33903,0 1.78453,0.47971 1.39301,1.5 -0.31659,0.825 -1.6259,1.5 -2.9096,1.5 -1.2837,0 -2.61211,0.45 -2.95203,1 -0.35224,0.56993 0.51406,1 2.01431,1 1.96692,0 2.54833,0.44238 2.30002,1.75 -0.25201,1.32707 -1.50953,1.82494 -5.20338,2.0601 -4.34031,0.27632 -4.79952,0.11288 -4.21456,-1.5 z m 10.60361,1.16794 c 0,-0.28707 1.32178,-3.43707 2.93728,-7 2.21014,-4.87435 3.43913,-6.47804 4.96447,-6.47804 2.02711,0 2.02711,1.4e-4 0.0627,4.58291 -2.41229,5.62764 -2.41783,5.41709 0.14253,5.41709 1.51045,0 1.93514,0.44784 1.5,1.58179 -0.33385,0.86998 -0.60699,1.76998 -0.60699,2 0,0.23001 -2.025,0.41821 -4.5,0.41821 -2.475,0 -4.5,-0.23488 -4.5,-0.52196 z m 32.01078,-0.96505 c -2.92211,-3.52093 2.92825,-12.51299 8.14113,-12.51299 3.73171,0 5.75383,3.44489 2.91419,4.96462 -1.54581,0.8273 -2.16945,0.67787 -2.95496,-0.70801 -0.93449,-1.64873 -1.08741,-1.63379 -2.49008,0.24339 -3.11928,4.17447 -2.16739,7.64633 1.17894,4.3 0.93333,-0.93333 1.47778,-0.91756 2.45,0.071 1.00287,1.01971 0.78327,1.65236 -1.11078,3.2 -2.81703,2.30182 -6.42223,2.49786 -8.12844,0.44201 z m 12.00144,-0.49015 c -1.40591,-2.62697 0.92731,-8.28189 4.33962,-10.51772 3.21485,-2.10645 8.01051,-1.64037 8.47817,0.82397 1.44233,7.60047 -9.50657,15.88082 -12.81779,9.69375 z m 8.03082,-5.12676 c 0.67439,-1.62812 0.90186,-3.28328 0.50548,-3.67814 -0.99632,-0.99253 -4.54852,3.58502 -4.54852,5.86146 0,2.73778 2.58227,1.3433 4.04304,-2.18332 z m 5.17374,5.85392 c -1.66712,-2.02694 2.84352,-12.16937 5.59005,-12.56955 2.69345,-0.39244 2.70274,-0.0996 0.15535,4.89368 -1.94033,3.80335 -1.88622,6.61499 0.10364,5.38519 0.51019,-0.31531 1.88451,-2.79765 3.05404,-5.51631 1.16954,-2.71865 2.74601,-4.94301 3.50328,-4.94301 1.83827,0 1.7436,0.91669 -0.6546,6.33821 -2.95584,6.68218 -8.87372,9.91099 -11.75176,6.41179 z m 10.7831,0.5 c -7e-5,-0.4125 1.22506,-3.5625 2.72252,-7 2.52437,-5.79484 2.95537,-6.25 5.91834,-6.25 1.75763,0 3.90749,0.27314 4.77747,0.60699 2.19763,0.84331 1.97703,4.07417 -0.41821,6.12504 -1.10901,0.94956 -2,2.94994 -2,4.49021 0,2.11109 -0.48,2.77776 -2,2.77776 -1.46667,0 -2,-0.66667 -2,-2.5 0,-1.375 -0.37777,-2.5 -0.83948,-2.5 -0.46172,0 -1.35207,1.125 -1.97857,2.5 -1.02971,2.25997 -4.18177,3.57896 -4.18207,1.75 z m 9.41259,-7.85478 c 0.86682,-0.33264 1.32707,-1.00764 1.02277,-1.5 -0.83889,-1.35736 -2.15296,-1.07321 -2.79687,0.60478 -0.6432,1.67616 -0.4781,1.75947 1.7741,0.89522 z m 3.58466,7.85478 c -0.002,-0.4125 1.19092,-3.5625 2.65001,-7 1.89242,-4.45838 3.18321,-6.25 4.50288,-6.25 2.3629,0 2.38142,-0.12816 -1.0873,7.52196 -1.79287,3.95407 -3.54615,6.47804 -4.5,6.47804 -0.8595,0 -1.56401,-0.3375 -1.56559,-0.75 z m 6.00287,-0.1293 c 0,-0.54388 1.18382,-3.71853 2.63071,-7.05479 l 2.63072,-6.06591 4.8379,0 c 3.88951,0 4.72506,0.29405 4.2623,1.5 -0.32429,0.84507 -1.81299,1.5 -3.4096,1.5 -1.5587,0 -3.11211,0.45 -3.45203,1 -0.33992,0.55 0.30852,1 1.44098,1 1.16357,0 2.05902,0.65234 2.05902,1.5 0,0.92366 -0.93789,1.5 -2.44098,1.5 -1.34254,0 -2.7191,0.45 -3.05902,1 -0.35224,0.56993 0.51406,1 2.01431,1 1.96692,0 2.54833,0.44238 2.30002,1.75 -0.2504,1.31861 -1.50102,1.82513 -5.07332,2.05479 -2.66394,0.17126 -4.74101,-0.12844 -4.74101,-0.68409 z m 10.99713,0.1293 c -0.002,-0.4125 1.19092,-3.5625 2.65001,-7 2.48337,-5.8506 2.86175,-6.25 5.92109,-6.25 6.53631,0 8.47394,2.84189 4.43177,6.5 -1.10722,1.00202 -2,3.07997 -2,4.65499 0,2.17834 -0.46866,2.84501 -2,2.84501 -1.46667,0 -2,-0.66667 -2,-2.5 0,-1.375 -0.37777,-2.5 -0.83948,-2.5 -0.46172,0 -1.35207,1.125 -1.97857,2.5 -1.03011,2.26086 -4.17782,3.57716 -4.18482,1.75 z m 9.7737,-9.0625 c 0.59996,-1.79986 -1.467,-1.42165 -2.16452,0.39606 -0.37373,0.97391 -0.15024,1.43108 0.58051,1.1875 0.6535,-0.21783 1.36631,-0.93044 1.58401,-1.58356 z m -175.38679,5.37091 c -1.06236,-2.76846 0.0934,-5.05378 2.71011,-5.35897 3.44986,-0.40235 5.42171,1.96815 3.94006,4.73664 -1.28025,2.39217 -5.80841,2.81593 -6.65017,0.62233 z m 85.54639,-0.14223 c -1.75398,-2.11343 -0.004,-4.91618 3.06957,-4.91618 3.07357,0 4.82355,2.80275 3.06957,4.91618 -0.72295,0.8711 -2.10426,1.58382 -3.06957,1.58382 -0.96531,0 -2.34662,-0.71272 -3.06957,-1.58382 z m -274.62524,-9.42693 c -3.03301,-1.22156 -3.88798,-6.71639 -2.51579,-16.16867 2.34254,-16.13646 14.20801,-37.90439 23.2904,-42.72763 6.35835,-3.37664 9.42873,-2.45824 12.11972,3.6252 1.68882,3.81786 1.94324,5.83599 1.43079,11.34969 -0.3428,3.68838 -0.34406,9.37751 -0.003,12.64251 0.58717,5.61769 0.84245,6.07679 4.75555,8.5524 2.27429,1.43883 6.33825,3.20531 9.03102,3.92551 4.08089,1.09147 5.1302,1.87013 6.30312,4.67734 1.78192,4.26472 1.18693,5.77691 -2.60029,6.60872 -3.77749,0.82968 -10.48873,-2.00474 -17.77843,-7.50852 -2.88896,-2.18119 -6.22492,-3.9658 -7.41322,-3.9658 -2.38111,0 -7.90163,5.36757 -12.13761,11.80132 -1.4918,2.26579 -4.51137,5.03741 -6.71016,6.15915 -4.42902,2.25951 -4.64541,2.28816 -7.7723,1.02878 z m 15.18504,-21.11482 c 1.95791,-1.71906 5.80687,-6.54837 8.55324,-10.73179 l 4.99341,-7.60622 -2.26844,-1.74597 c -3.05259,-2.34952 -5.02059,-2.22846 -7.47057,0.45955 -4.9053,5.38188 -12.00674,19.79401 -10.75293,21.82272 1.04538,1.69145 3.34362,0.96403 6.94529,-2.19829 z m 114.60863,2.52412 c -3.04856,-3.87561 -3.454,-7.9918 -2.69079,-27.31809 0.6982,-17.6801 4.00604,-56.89792 5.20048,-61.65692 l 0.64119,-2.55473 -3.87487,1.64734 c -10.42799,4.43329 -18.58075,7.48385 -20.0009,7.48385 -2.32459,0 -8.37397,-6.46222 -8.37397,-8.94546 0,-4.02882 4.27504,-6.7129 17.60431,-11.05284 17.97739,-5.85335 41.94733,-11.25298 46.52294,-10.48008 2.07484,0.35047 4.77569,1.8114 6.3106,3.41351 2.48168,2.59031 2.56069,2.92347 1.05132,4.43284 -0.89761,0.89762 -2.26459,1.63203 -3.03771,1.63203 -1.85071,0 -19.70143,6.04884 -20.81931,7.05477 -1.96915,1.77193 -8.5259,44.36917 -11.61286,75.44523 -1.14732,11.55 -2.2819,21.5625 -2.52128,22.25 -0.67715,1.94476 -2.16617,1.48732 -4.39915,-1.35145 z m 37.83525,-8.52166 c -1.37832,-2.57542 -1.36872,-9.27478 0.0285,-19.87689 0.54361,-4.125 1.1869,-13.33798 1.42954,-20.47329 0.40349,-11.86582 0.62845,-13.12495 2.6353,-14.75 1.20675,-0.97719 2.79375,-1.77671 3.52663,-1.77671 2.33968,0 4.44592,4.29017 4.44592,9.05584 0,2.53595 0.28778,4.8986 0.63951,5.25033 0.35173,0.35173 2.96796,-1.48577 5.81386,-4.08333 5.90333,-5.38821 14.7905,-10.22284 18.79193,-10.22284 2.10595,0 2.86637,0.59675 3.3829,2.65478 0.89846,3.57975 -0.39596,5.35478 -6.2128,8.51954 -5.82452,3.16894 -14.54914,12.51149 -17.58052,18.82568 -1.18823,2.475 -3.82583,9.36617 -5.86135,15.31371 -3.94682,11.53213 -4.2791,12.10114 -7.66263,13.12195 -1.64224,0.49547 -2.48579,0.10608 -3.37679,-1.55877 z m 42.10107,-11.81115 c -3.01664,-5.63665 0.22594,-23.65259 6.51568,-36.20139 7.36779,-14.69965 15.15111,-22.86435 21.79634,-22.86435 5.14066,0 9.32903,7.77096 8.25422,15.31461 -0.81649,5.73063 -0.82864,7.27182 -0.11201,14.21384 0.61299,5.938 0.69276,6.06742 5.31646,8.62525 2.58177,1.42824 6.49413,3.15259 8.69413,3.83189 4.90787,1.51542 6.5,3.40284 6.5,7.70554 0,3.22709 -0.10524,3.30887 -4.25796,3.30887 -4.57481,0 -11.58442,-3.18944 -17.88594,-8.13829 -5.92992,-4.65701 -10.54561,-3.45542 -14.93324,3.88754 -2.99525,5.01274 -6.83101,9.12011 -10.1232,10.84003 -3.92649,2.05129 -8.51823,1.8051 -9.76448,-0.52354 z m 19.33757,-21.3914 c 2.85972,-2.92911 6.51298,-7.83436 8.11834,-10.90056 2.47844,-4.73376 2.71856,-5.81624 1.59143,-7.17435 -0.73007,-0.87969 -2.61949,-1.59943 -4.19869,-1.59943 -3.36716,0 -7.36698,4.83133 -12.00443,14.5 -5.57582,11.62509 -2.3299,14.21166 6.49335,5.17434 z m 97.73244,9.95241 c -1.89703,-2.28578 -0.30186,-4.17721 5.57842,-6.61445 9.11915,-3.77968 16.26164,-11.45872 14.836,-15.95051 -0.55474,-1.74782 -6.20122,-6.03021 -9.61209,-7.28997 -3.05274,-1.12749 -5.20104,-7.59821 -4.62645,-13.93493 0.96422,-10.63357 7.17233,-17.99395 20.13402,-23.87106 10.2478,-4.64658 16.58491,-3.42083 16.58491,3.20792 0,3.50465 -2.71321,5.60053 -9.55812,7.3834 -9.34994,2.43536 -13.70786,5.29924 -15.37515,10.10407 -1.28073,3.69081 -1.25838,4.39733 0.20995,6.6383 0.90377,1.37933 4.24875,3.96519 7.43327,5.74636 7.14978,3.99902 8.29005,5.37089 8.29005,9.9738 0,7.17702 -8.97505,17.31322 -20.37311,23.0089 -6.37958,3.18791 -11.68219,3.81464 -13.5217,1.59817 z m -54.00171,-0.74385 c -2.68328,-1.03776 -2.67578,1.60762 -0.0833,-29.3829 1.18964,-14.22082 2.67774,-18 7.08773,-18 2.01218,0 2.4379,0.55586 2.68062,3.5 0.47306,5.73836 0.74685,6.05792 4.16825,4.86522 1.67605,-0.58428 3.98191,-2.37476 5.12413,-3.97886 4.59356,-6.45107 11.93371,-7.40079 18.49861,-2.3935 4.3067,3.28489 5.11829,4.85629 7.94873,15.3904 3.95511,14.71984 4.79472,20.02265 3.43051,21.66642 -3.39323,4.08861 -7.41391,-0.5712 -9.96556,-11.54968 -2.19851,-9.45909 -6.46414,-17.91567 -9.07176,-17.98469 -0.3182,-0.008 -2.65284,1.35864 -5.18809,3.03792 -6.1241,4.05644 -10.82417,11.39774 -15.00602,23.43877 -3.70602,10.67094 -5.62193,12.93863 -9.62385,11.3909 z"
       id="path3051"
       inkscape:connector-curvature="0" />
  </g>
</svg>
