<?xml version="1.0" encoding="UTF-8" standalone="no"?>
<!-- Created with Inkscape (http://www.inkscape.org/) -->

<svg
   xmlns:dc="http://purl.org/dc/elements/1.1/"
   xmlns:cc="http://creativecommons.org/ns#"
   xmlns:rdf="http://www.w3.org/1999/02/22-rdf-syntax-ns#"
   xmlns:svg="http://www.w3.org/2000/svg"
   xmlns="http://www.w3.org/2000/svg"
   xmlns:sodipodi="http://sodipodi.sourceforge.net/DTD/sodipodi-0.dtd"
   xmlns:inkscape="http://www.inkscape.org/namespaces/inkscape"
   width="573.5"
   height="223.03906"
   id="svg2"
   version="1.1"
   inkscape:version="0.48.4 r"
   sodipodi:docname="New document 1">
  <defs
     id="defs4" />
  <sodipodi:namedview
     id="base"
     pagecolor="#ffffff"
     bordercolor="#666666"
     borderopacity="1.0"
     inkscape:pageopacity="0.0"
     inkscape:pageshadow="2"
     inkscape:zoom="0.35"
     inkscape:cx="98.009754"
     inkscape:cy="-22.372703"
     inkscape:document-units="px"
     inkscape:current-layer="layer1"
     showgrid="false"
     fit-margin-top="0"
     fit-margin-left="0"
     fit-margin-right="0"
     fit-margin-bottom="0"
     inkscape:window-width="1366"
     inkscape:window-height="705"
     inkscape:window-x="-8"
     inkscape:window-y="-8"
     inkscape:window-maximized="1" />
  <metadata
     id="metadata7">
    <rdf:RDF>
      <cc:Work
         rdf:about="">
        <dc:format>image/svg+xml</dc:format>
        <dc:type
           rdf:resource="http://purl.org/dc/dcmitype/StillImage" />
        <dc:title></dc:title>
      </cc:Work>
    </rdf:RDF>
  </metadata>
  <g
     inkscape:label="Layer 1"
     inkscape:groupmode="layer"
     id="layer1"
     transform="translate(-125.20194,-524.56802)">
    <g
       id="g3124"
       transform="translate(-160,-217.14286)">
      <path
         id="path3062"
         d="m 286.32654,960.90089 c 3.39707,-25.53643 7.17035,-40.6383 14.46704,-57.90177 8.0878,-19.13518 24.43128,-44.83783 34.83621,-54.78532 1.68968,-1.6154 3.07215,-3.45522 3.07215,-4.08848 0,-0.63327 -4.1028,-8.08658 -9.11733,-16.56291 -5.01453,-8.47634 -13.22703,-22.35337 -18.25,-30.83784 -8.78407,-14.8375 -15.92194,-23.74769 -23.13267,-28.8765 l -3,-2.13382 41,0.0503 41,0.0503 -5.11583,2.33977 c -5.85657,2.67856 -9.38417,6.58627 -9.38417,10.39535 0,5.08457 4.20967,14.44303 14.00725,31.13934 1.76273,3.00392 3.32644,5.59339 3.47489,5.75438 0.14846,0.16098 4.01255,-2.38808 8.58687,-5.66459 26.26028,-18.80977 62.09317,-36.78034 95.93099,-48.11038 64.14204,-21.47691 140.56278,-25.88613 206.85064,-11.93458 61.39796,12.92237 112.02459,38.65451 149.14936,75.80856 10.98652,10.99519 12.21835,12.55572 10.1738,12.88861 -1.72463,0.28081 -3.79348,-1.00794 -8,-4.98343 -3.12059,-2.9492 -10.01871,-8.60956 -15.32915,-12.57858 -38.62829,-28.87072 -88.46197,-46.43853 -151.34465,-53.35336 -26.44533,-2.90804 -74.12117,-1.24293 -104.5,3.64971 -66.49653,10.70957 -124.65684,35.95917 -165.25,71.74131 -3.7125,3.2725 -6.75,6.31803 -6.75,6.76783 0,0.44981 2.39985,5.01597 5.333,10.14702 5.3208,9.30783 21.69265,38.19476 25.40722,44.82918 1.0778,1.925 5.54282,9.81816 9.92227,17.54036 4.37945,7.7222 8.22164,14.6972 8.53819,15.5 1.2789,3.24339 15.48046,18.4652 21.05897,22.57187 l 5.96037,4.38777 -42.36001,-0.10209 c -31.30666,-0.0754 -41.4987,-0.37794 -39.05918,-1.15924 1.81546,-0.58143 5.12089,-2.67299 7.34542,-4.64791 3.38106,-3.00169 4.13251,-4.37193 4.58054,-8.3525 0.70084,-6.22662 -1.12842,-10.90104 -10.38611,-26.5402 -4.03737,-6.8204 -7.34068,-12.54394 -7.34068,-12.71899 0,-0.17504 -2.40217,-4.29194 -5.33817,-9.14866 -2.93599,-4.85673 -6.7059,-11.25012 -8.37758,-14.20754 l -3.03942,-5.37713 -3.4144,5.87713 c -11.27547,19.40823 -17.14311,39.91149 -18.49506,64.62713 l -0.64272,11.75 -26.78346,0 -26.78345,0 0.49886,-3.75 z"
         style="fill:#000000"
         inkscape:connector-curvature="0" />
      <path
         id="path3060"
         d="m 576.71875,875.78125 c -9.23408,-0.002 -20.95734,0.0332 -35.9375,0.0937 l -67.4375,0.28125 -2.75,13 c -1.51245,7.15 -3.03827,14.4625 -3.375,16.25 l -0.59375,3.25 8.53125,0 c 7.76568,0 8.53125,-0.1893 8.53125,-1.9375 0,-1.05804 0.54304,-4.20804 1.1875,-7 l 1.15625,-5.0625 4.90625,0 c 4.1941,0 4.82085,0.25077 4.375,1.75 -0.669,2.2496 -4.47856,17.99234 -8.59375,35.5 -3.22034,13.7006 -3.2495,13.75 -6.09375,13.75 -2.45529,0 -2.9893,0.52447 -3.84375,3.75 -1.55726,5.87864 -3.0357,12.62951 -3.0625,14 -0.0187,0.95456 4.23762,1.25 17.96875,1.25 17.84342,0 17.97927,-0.0172 18.4375,-2.25 1.79514,-8.74708 2.80438,-13.48949 3.21875,-15 0.38313,-1.39659 -0.15453,-1.75 -2.65625,-1.75 -2.49425,0 -3.02263,-0.35758 -2.65625,-1.75 0.70077,-2.66328 2.41153,-9.96964 4.15625,-17.75 1.78108,-7.94256 3.96812,-17.43153 5.90625,-25.5 l 1.34375,-5.5 19.125,-0.28125 c 10.52519,-0.14938 19.125,-0.0598 19.125,0.1875 0,0.46549 -5.2818,24.04107 -6.96875,31.09375 -0.52622,2.2 -1.67099,7.45624 -2.5625,11.6875 -1.57335,7.46739 -1.73577,7.70219 -4.75,8 -2.99784,0.29619 -3.18171,0.60685 -5.375,8.8125 -1.24958,4.675 -2.26205,8.8375 -2.28125,9.25 -0.0192,0.4125 6.66207,0.75 14.875,0.75 13.35813,0 15.00677,-0.18452 15.46875,-1.75 0.28404,-0.9625 1.45933,-6.025 2.625,-11.25 1.16567,-5.225 2.82578,-12.5375 3.6875,-16.25 l 1.5625,-6.75 6.9375,0 c 6.12616,0 6.87999,0.20348 6.4375,1.75 -0.27539,0.9625 -1.68997,7.55344 -3.125,14.65625 -1.43503,7.10282 -2.8138,13.25385 -3.0625,13.65625 -0.24869,0.4024 0.42096,1.76771 1.46875,3.0625 l 1.90625,2.375 28.90625,0.28125 28.9375,0.3125 1.59375,-3.8125 c 0.88881,-2.08587 2.86713,-7.04375 4.375,-11.03125 l 2.71875,-7.25 6.4375,0 6.40625,0 -0.71875,11 -0.71875,11 31.53125,0 c 27.80349,0 31.55803,-0.19768 32.09375,-1.59375 0.33385,-0.86998 0.59375,-1.76998 0.59375,-2 0,-0.23001 -7.0875,-0.50251 -15.75,-0.625 l -15.75,-0.21875 15.75,-0.3125 c 8.6625,-0.16648 15.75,-0.69644 15.75,-1.1875 0,-0.49105 0.29707,-1.61419 0.625,-2.46875 0.51885,-1.35212 -1.26546,-1.57591 -13.75,-1.84375 l -14.375,-0.3125 14.75,-0.21875 c 14.00991,-0.20921 14.75,-0.3191 14.75,-2.21875 0,-1.87173 -0.72154,-2.00219 -11.25,-2.15625 l -11.25,-0.1875 11.75,-0.96875 c 10.33339,-0.86324 11.75,-1.21296 11.75,-2.8125 0,-1.61904 -1.12581,-1.83651 -10.25,-2.125 l -10.25,-0.34375 10.75,-0.1875 c 5.9125,-0.116 10.75,-0.65124 10.75,-1.15625 0,-0.50502 0.29115,-1.63002 0.625,-2.5 0.5311,-1.38404 -0.78535,-1.5625 -10.53125,-1.5625 -8.03865,0 -11.25333,0.34787 -11.53125,1.25 -0.2118,0.6875 -0.63733,2.4875 -0.96875,4 l -0.625,2.75 -9.5625,0 -9.5625,0 0.6875,-13.75 c 0.38256,-7.5625 0.98757,-23.08693 1.34375,-34.5 l 0.625,-20.75 -16,-0.125 c -8.8,-0.0664 -17.26354,-0.1794 -18.84375,-0.25 -2.75121,-0.1229 -3.07424,0.36291 -7.59375,11.375 -2.59586,6.325 -7.23645,17.575 -10.3125,25 -3.07605,7.425 -7.37566,17.775 -9.53125,23 l -3.90625,9.5 -8.15625,0.28125 c -9.39176,0.3349 -8.99025,0.94667 -6.625,-10.21875 1.66874,-7.87744 0.85952,-10.31699 -4.46875,-13.375 l -2.8125,-1.59375 5.125,-3.03125 c 3.24367,-1.93187 5.76501,-4.34772 6.84375,-6.5625 4.504,-9.24727 6.31399,-25.40228 3.3125,-29.6875 -0.82407,-1.17653 -3.41157,-2.86672 -5.75,-3.75 -2.83351,-1.07029 -8.04777,-1.43103 -35.75,-1.4375 z m 12.09375,18.875 7.09375,0 -0.625,2.75 c -0.34536,1.5125 -1.3541,5.5625 -2.25,9 l -1.625,6.25 -6.84375,0 c -3.76837,0 -6.85175,-0.3375 -6.84375,-0.75 0.008,-0.4125 0.90845,-4.29285 2,-8.625 1.09156,-4.33215 1.96875,-8.04465 1.96875,-8.25 0,-0.20535 3.21537,-0.375 7.125,-0.375 z m 79.4375,1.75 c 0.7589,-0.16319 0.41799,5.14426 -0.71875,18 -0.95961,10.85247 -1.45603,13.2495 -2.75,13.3125 -0.86891,0.0423 -3.09754,0.1547 -4.9375,0.25 -1.83995,0.0953 -3.4579,-0.0374 -3.625,-0.3125 -0.27342,-0.45013 3.31151,-10.44531 5.5625,-15.5 0.48986,-1.1 2.21539,-5.6 3.84375,-10 1.32513,-3.58067 2.16966,-5.65209 2.625,-5.75 z"
         style="fill:#0000ff"
         inkscape:connector-curvature="0" />
      <path
         id="path3054"
         d="m 746.70194,962.5105 0,-2.1404 44.94638,0.3904 c 25.46566,0.22118 44.57107,0.76728 44.08044,1.25996 -2.02787,2.03633 -11.73161,2.54574 -49.27682,2.58688 l -39.75,0.0435 0,-2.14039 z"
         style="fill:#0000ff"
         inkscape:connector-curvature="0" />
      <path
         id="path3052"
         d="m 745.45194,959.09666 c -0.4125,-0.42851 -0.75,-1.66298 -0.75,-2.74328 0,-1.71324 0.47908,-1.88499 3.75,-1.34434 2.0625,0.34091 23.8875,0.62479 48.5,0.63084 24.6125,0.006 44.75,0.3947 44.75,0.86366 0,0.46895 -16.3125,1.15251 -36.25,1.51902 -19.9375,0.3665 -41.425,0.93341 -47.75,1.25979 -6.325,0.32638 -11.8375,0.24282 -12.25,-0.18569 z"
         style="fill:#0000ff"
         inkscape:connector-curvature="0" />
      <path
         id="path3050"
         d="m 743.36246,952.2086 c -0.36329,-0.94671 -0.66052,-1.90948 -0.66052,-2.1395 0,-0.23001 22.95,-0.41821 51,-0.41821 28.05,0 51,0.38527 51,0.85616 0,0.85334 -17.84684,1.53982 -72.08948,2.77291 -26.47715,0.6019 -28.63829,0.52274 -29.25,-1.07136 z"
         style="fill:#0000ff"
         inkscape:connector-curvature="0" />
      <path
         id="path3048"
         d="m 741.70194,945.80648 c 0,-2.12036 0.26968,-2.15559 16.5,-2.15559 10.33333,0 16.5,0.37374 16.5,1 0,0.63823 8.48033,1 23.44098,1 14.54864,0 23.67544,-0.37935 24.05902,-1 0.7615,-1.23214 23.5,-1.35712 23.5,-0.12917 0,1.56119 -10.78313,2.0773 -57.75,2.76406 l -46.25,0.67629 0,-2.15559 z"
         style="fill:#0000ff"
         inkscape:connector-curvature="0" />
      <path
         id="path3046"
         d="m 740.21158,940.8191 c -0.2803,-0.73248 -0.50964,-1.74498 -0.50964,-2.25 0,-0.52361 7.73554,-0.91821 18,-0.91821 17.19652,0 18,0.0873 18,1.95541 0,1.85479 -0.90004,1.97057 -17.49036,2.25 -13.85187,0.23331 -17.59639,0.0175 -18,-1.0372 z"
         style="fill:#0000ff"
         inkscape:connector-curvature="0" />
      <path
         id="path3044"
         d="m 822.70194,939.65089 c 0,-0.61358 4.85301,-1 12.55902,-1 8.11803,0 12.34047,0.35361 11.94098,1 -0.35619,0.57633 -5.67705,1 -12.55902,1 -7.29399,0 -11.94098,-0.38916 -11.94098,-1 z"
         style="fill:#0000ff"
         inkscape:connector-curvature="0" />
      <path
         id="path3042"
         d="m 710.03632,935.2219 c 0.30159,-0.78594 0.84982,-3.03594 1.21828,-5 l 0.66992,-3.57101 10.88871,0 c 10.22204,0 10.88871,0.12245 10.88871,2 0,1.81778 -0.7061,2.01078 -7.75,2.11831 -12.53048,0.1913 -15.37864,1.62626 -3.5,1.76338 9.5439,0.11016 10.25,0.25609 10.25,2.11831 0,1.88513 -0.66667,2 -11.60699,2 -9.65012,0 -11.51454,-0.24092 -11.05863,-1.42899 z"
         style="fill:#0000ff"
         inkscape:connector-curvature="0" />
      <path
         id="path3040"
         d="m 738.70194,934.80521 c 0,-2.13017 0.21299,-2.15432 19,-2.15432 16.22222,0 19,0.2193 19,1.5 0,1.1729 -1.36291,1.50088 -6.25,1.50406 -3.4375,0.002 -11.9875,0.29667 -19,0.65432 -12.58901,0.64205 -12.75,0.62306 -12.75,-1.50406 z"
         style="fill:#0000ff"
         inkscape:connector-curvature="0" />
      <path
         id="path3038"
         d="m 824.70194,934.25788 c 0,-1.38671 1.64492,-1.60699 12,-1.60699 7.33333,0 12,0.38889 12,1 0,0.60268 -4.1394,1 -10.41821,1 -5.73002,0 -11.13002,0.27314 -12,0.60699 -1.03799,0.39831 -1.58179,0.0545 -1.58179,-1 z"
         style="fill:#0000ff"
         inkscape:connector-curvature="0" />
      <path
         id="path3036"
         d="m 737.39924,930.01485 c -0.38352,-0.38351 -0.6973,-1.29729 -0.6973,-2.03063 0,-1.06775 4.08333,-1.33333 20.5,-1.33333 19.5712,0 20.5,0.0873 20.5,1.92611 0,1.83312 -0.95606,1.93116 -19.8027,2.03063 -10.89149,0.0575 -20.11649,-0.20926 -20.5,-0.59278 z"
         style="fill:#0000ff"
         inkscape:connector-curvature="0" />
      <path
         id="path3034"
         d="m 812.53283,928.72137 c -21.54921,-0.97034 -15.43743,-2.07048 11.50244,-2.07048 24.00183,0 31.84304,0.88159 21.0271,2.36408 -4.96478,0.68049 -12.38387,0.61353 -32.52954,-0.2936 z"
         style="fill:#0000ff"
         inkscape:connector-curvature="0" />
      <path
         id="path3032"
         d="m 713.88479,917.90089 c 2.42223,-9.83973 4.81715,-21.24154 4.81715,-22.93366 0,-0.17399 -1.29207,-0.31634 -2.87127,-0.31634 l -2.87126,0 2.14565,-9.25 2.14565,-9.25 13.93311,-0.22329 c 13.51833,-0.21664 15.44522,0.15292 15.50281,2.97329 0.008,0.4125 -6.39719,0.84362 -14.23469,0.95805 l -14.25,0.20805 14.5,0.54195 c 14.03097,0.52442 14.51022,0.61383 14.8159,2.76409 0.3121,2.19544 0.14387,2.22584 -14,2.52974 l -14.3159,0.3076 14.64301,0.22026 c 12.29546,0.18495 14.74032,0.47385 15.25,1.80205 0.33385,0.86998 0.60699,1.74942 0.60699,1.95431 0,0.20488 -3.0375,0.52994 -6.75,0.72235 l -6.75,0.34983 7.25,0.19586 c 6.99042,0.18885 7.25,0.2843 7.25,2.66598 l 0,2.47013 -12.75,0.31254 -12.75,0.31255 13.14301,0.21733 c 13.32804,0.22039 14.35699,0.52681 14.35699,4.2755 0,0.49203 -7.7625,1.02908 -17.25,1.19344 l -17.25,0.29883 17.63337,0.22478 c 16.69471,0.21281 17.66121,0.33124 18.15638,2.22478 0.49163,1.88 0.004,2.00705 -8.13337,2.11746 -4.76101,0.0646 -13.15638,0.44042 -18.65638,0.83515 -8.99193,0.64535 -8.07121,0.73432 9.13337,0.88255 18.22099,0.15698 19.15831,0.26021 19.65638,2.16484 0.50669,1.9376 0.003,2.00359 -16.13337,2.115 -11.37433,0.0785 -15.38791,0.37122 -12.65638,0.92297 2.2,0.44438 9.73789,0.73013 16.75087,0.635 9.62667,-0.13059 12.75066,0.1333 12.75,1.07703 -4.8e-4,0.6875 0.44913,1.25 0.99913,1.25 0.55,0 0.99963,-0.5625 0.99917,-1.25 -6.1e-4,-0.92429 2.86526,-1.25 10.99851,-1.25 9.80833,0 10.9995,0.18949 11.00083,1.75 10e-4,1.50444 -1.08599,1.7693 -7.74851,1.88753 -4.2625,0.0756 -18.775,0.44138 -32.25,0.81275 l -24.5,0.67524 31.75,0.18724 c 26.89099,0.15858 31.75,0.40777 31.75,1.62822 0,0.79254 -0.36267,1.66513 -0.80594,1.93908 -1.26463,0.78159 -41.83302,0.96111 -43.07967,0.19064 -0.61291,-0.3788 -1.11439,-0.21218 -1.11439,0.37028 0,0.68322 -4.03202,1.05902 -11.36248,1.05902 l -11.36247,0 1.9078,-7.75 z"
         style="fill:#0000ff"
         inkscape:connector-curvature="0" />
      <path
         id="path3030"
         d="m 794.69332,923.81756 c -0.54526,-0.18334 -0.99138,-1.01559 -0.99138,-1.84946 0,-1.33332 3.45545,-1.44481 28.65867,-0.92466 15.76227,0.3253 28.87668,0.80947 29.14313,1.07592 0.26645,0.26645 -0.14245,0.70737 -0.90867,0.97983 -1.56929,0.55803 -54.36097,1.23642 -55.90175,0.71837 z"
         style="fill:#0000ff"
         inkscape:connector-curvature="0" />
      <path
         id="path3028"
         d="m 792.70194,917.29897 c 0,-1.49222 2.69526,-1.64808 28.5,-1.64808 18.33333,0 28.5,0.35673 28.5,1 0,0.61742 -5.26052,1.00603 -13.75,1.01577 -7.5625,0.009 -20.3875,0.30031 -28.5,0.64808 -13.28922,0.56968 -14.75,0.46908 -14.75,-1.01577 z"
         style="fill:#0000ff"
         inkscape:connector-curvature="0" />
      <path
         id="path3026"
         d="m 759.08195,912.10298 c 0.341,-0.88862 0.61999,-1.80386 0.61999,-2.03388 0,-0.23001 4.983,-0.41821 11.07332,-0.41821 10.00709,0 11.04104,0.16851 10.73803,1.75 -0.29194,1.52373 -1.80386,1.7867 -11.69331,2.03387 -10.11545,0.25282 -11.29019,0.10712 -10.73803,-1.33178 z"
         style="fill:#0000ff"
         inkscape:connector-curvature="0" />
      <path
         id="path3024"
         d="m 792.96299,911.40089 c 0.32967,-0.96346 5.53903,-1.17324 22.72564,-0.91513 31.16496,0.46803 32.40813,2.02331 1.67998,2.10174 -19.44999,0.0496 -24.74062,-0.20758 -24.40562,-1.18661 z"
         style="fill:#0000ff"
         inkscape:connector-curvature="0" />
      <path
         id="path3022"
         d="m 760.41219,905.65089 c 0.48437,-1.85224 1.36402,-2 11.90638,-2 6.26085,0 11.38337,0.1882 11.38337,0.41821 0,0.23002 -0.27314,1.13002 -0.60699,2 -0.50394,1.31325 -2.5253,1.58179 -11.90638,1.58179 -10.80706,0 -11.2766,-0.0871 -10.77638,-2 z"
         style="fill:#0000ff"
         inkscape:connector-curvature="0" />
      <path
         id="path3020"
         d="m 794.03386,906.2283 c 0.36744,-0.95754 0.66808,-1.92918 0.66808,-2.1592 0,-0.23001 5.175,-0.41821 11.5,-0.41821 9.55556,0 11.5,0.25362 11.5,1.5 0,1.18433 -1.42053,1.50183 -6.75,1.50869 -3.7125,0.005 -9.18814,0.30142 -12.16808,0.6592 -4.87962,0.58586 -5.35168,0.47748 -4.75,-1.09048 z"
         style="fill:#0000ff"
         inkscape:connector-curvature="0" />
      <path
         id="path3018"
         d="m 761.69983,899.90089 c 0.002,-2.19611 0.26418,-2.25 10.94309,-2.25 6.01754,0 11.16285,0.35899 11.43402,0.79775 1.37721,2.22837 -1.56716,3.08393 -11.64351,3.3833 -10.56169,0.31378 -10.73568,0.28248 -10.7336,-1.93105 z"
         style="fill:#0000ff"
         inkscape:connector-curvature="0" />
      <path
         id="path3016"
         d="m 795.70194,899.68263 c 0,-1.93013 0.60381,-2.03174 12.07332,-2.03174 10.95951,0 12.04239,0.16144 11.73793,1.75 -0.29296,1.52852 -1.82096,1.78566 -12.07333,2.03174 -11.22481,0.26941 -11.73792,0.19292 -11.73792,-1.75 z"
         style="fill:#0000ff"
         inkscape:connector-curvature="0" />
      <path
         id="path3014"
         d="m 832.95194,899.40089 c 0.22917,-0.6875 0.94167,-1.205 1.58333,-1.15 0.64167,0.055 5.46823,0.1675 10.72569,0.25 6.08265,0.0954 9.33425,0.51367 8.94098,1.15 -0.96392,1.55966 -21.77162,1.31486 -21.25,-0.25 z"
         style="fill:#0000ff"
         inkscape:connector-curvature="0" />
      <path
         id="path3012"
         d="m 762.86664,894.59861 c 0.37274,-2.54868 -0.42258,-2.45769 18.5853,-2.12638 17.35298,0.30247 11.77985,2.66937 -9.0853,3.85852 -9.82019,0.55967 -9.83479,0.55701 -9.5,-1.73214 z"
         style="fill:#0000ff"
         inkscape:connector-curvature="0" />
      <path
         id="path3010"
         d="m 796.70194,894.1912 c 0,-1.35227 3.6013,-1.54031 29.5,-1.54031 19,0 29.5,0.35593 29.5,1 0,0.56845 -3.12872,1.02938 -7.25,1.06808 -3.9875,0.0374 -17.2625,0.28059 -29.5,0.54032 -19.57431,0.41544 -22.25,0.28699 -22.25,-1.06809 z"
         style="fill:#0000ff"
         inkscape:connector-curvature="0" />
      <path
         id="path3008"
         d="m 764.09495,889.0691 c 0.33385,-0.86998 0.60699,-1.76998 0.60699,-2 0,-0.23001 6.3,-0.41821 14,-0.41821 13.33333,0 14,0.0952 14,2 0,1.90872 -0.66667,2 -14.60699,2 -12.90882,0 -14.53642,-0.18389 -14,-1.58179 z"
         style="fill:#0000ff"
         inkscape:connector-curvature="0" />
      <path
         id="path3006"
         d="m 798.70111,888.40089 c 7.7e-4,-1.62653 2.05273,-1.75 29.08416,-1.75 22.82169,0 28.99384,0.26913 28.66767,1.25 -0.31439,0.94546 -7.40031,1.37182 -29.08416,1.75 -26.82735,0.46789 -28.66844,0.38761 -28.66767,-1.25 z"
         style="fill:#0000ff"
         inkscape:connector-curvature="0" />
      <path
         id="path3004"
         d="m 765.70194,882.60282 c 0,-1.9721 0.51005,-2.04248 13.75,-1.8974 7.5625,0.0829 14.06785,0.34392 14.45633,0.5801 0.38848,0.23618 0.45283,1.09001 0.14301,1.8974 -0.45786,1.19316 -3.16418,1.46797 -14.45633,1.46797 -13.33504,0 -13.89301,-0.0823 -13.89301,-2.04807 z"
         style="fill:#0000ff"
         inkscape:connector-curvature="0" />
      <path
         id="path3002"
         d="m 801.93163,882.99262 c 1.34327,-1.34326 5.27605,-1.53725 28.38203,-1.39999 24.53672,0.14575 28.53027,0.35363 27.30495,1.42133 -0.22917,0.19968 -13.20334,0.62743 -28.83149,0.95053 -25.73815,0.53213 -28.26793,0.44058 -26.85549,-0.97187 z"
         style="fill:#0000ff"
         inkscape:connector-curvature="0" />
      <path
         id="path3000"
         d="m 766.70194,877.80171 c 0,-2.10221 0.32774,-2.15082 14.5,-2.15082 12.22222,0 14.5,0.23563 14.5,1.5 0,1.12208 -1.19674,1.5013 -4.75,1.50517 -2.6125,0.003 -9.1375,0.29572 -14.5,0.65083 -9.51136,0.62984 -9.75,0.593 -9.75,-1.50518 z"
         style="fill:#0000ff"
         inkscape:connector-curvature="0" />
      <path
         id="path2996"
         d="m 811.20194,877.12289 c 4.54856,-1.49909 47.5,-2.06821 47.5,-0.6294 0,0.87864 -28.26719,2.22593 -43,2.04949 -8.4445,-0.10113 -8.47388,-0.11041 -4.5,-1.42009 z"
         style="fill:#0000ff"
         inkscape:connector-curvature="0" />
    </g>
  </g>
</svg>
